{"title":"Sting - When the Last Ship Sails 2013 480p HDRip XviD titler","uid":9448917,"size":1008910888,"categoryP":"video","categoryS":"movies","magnet":"?xt=urn:btih:e1a99db14924ca697ba3fcd7c8f7dad6a8d94cf0&amp;dn=Sting+-+When+the+Last+Ship+Sails+2013+480p+HDRip+XviD+titler&amp;tr=udp%3A%2F%2Ftracker.openbittorrent.com%3A80&amp;tr=udp%3A%2F%2Fopen.demonii.com%3A1337&amp;tr=udp%3A%2F%2Ftracker.coppersurfer.tk%3A6969&amp;tr=udp%3A%2F%2Fexodus.desync.com%3A6969","seeders":5,"leechers":0,"uploader":"movieZ.freak","files":5,"time":1389135978,"description":" &lt;a href=&quot;http://www.bbc.co.uk/programmes/b03n2gh6&quot; rel=&quot;nofollow&quot; target=&quot;_NEW&quot;&gt;http://www.bbc.co.uk/programmes/b03n2gh6&lt;/a&gt;\n\n\n\n\n- SAMPLE: Yes\n\n\n- SUBTITLE: English\n\n\n- LANGUAGE / AUDIO: English\n\n\n\nSCREENSHOTS:\n-------------------    &lt;a href=&quot;\nhttp://someimage.com/Urhz&quot; rel=&quot;nofollow&quot; target=&quot;_NEW&quot;&gt;\nhttp://someimage.com/Urhz&lt;/a&gt;\n\n\n\nNOTE:\n----------\n\nSOURCE: HDTVRip 720p (MKV, 2 channels audio)\n\n\n\nDIRECTOR: Paul Bozymowski\n\n\nINFO:\n-----------\nSting performs songs from his new album The Last Ship in an intimate live performance recorded earlier this year at the Public Theatre, New York. Inspired by the shipbuilding community of Wallsend in the north east of England where Sting was born and raised, the songs form part of his forthcoming Broadway play. For his first new work in a decade he and his band, many of whom hail from the north east, are joined by actor and singer Jimmy Nail.\n\n\n\nTRACKLIST:\n\n-------------------------------\n\n1. The Last Ship\n2. Shipyard\n3. Coming Home's Not Easy\n4. And Yet\n5. August Winds\n6. What Have We Got?\n7. Practical Arrangement\n8. What Say You Meg?\n9. Dead Man's Boots\n10. Big Steamers\n11. Jock the Singing Welder\n12. So To Speak\n13. Show Some Respect\n14. Underground River\n15. The Last Ship (Reprise)\n\n------------------------------\n\nAVI INFO:\n\n************************************\n\n- Duration: 1h 18mn\n\n- Bit rate: 1498 Kbps\n\n- Res: 854 x 480\n\n- AR: 16:9\n\n- FPS: 25.000 fps\n\n- Audio: AC-3, 128 Kbps, 2 channels\n\n************************************\n\n\nGeneral\n--------------\nFormat : AVI\nFormat/Info : Audio Video Interleave\nFile size : 918 MiB\nDuration : 1h 18mn\nOverall bit rate : 1636 Kbps\nWriting library : VirtualDub build 35491\n\n\nVideo\n--------------\nFormat : MPEG-4 Visual\nFormat profile : Advanced Simple@L5\nFormat settings, BVOP : 2\nFormat settings, QPel : No\nFormat settings, GMC : No warppoints\nFormat settings, Matrix : Default (H.263)\nCodec ID : XVID\nCodec ID/Hint : XviD\nDuration : 1h 18mn\nBit rate : 1498 Kbps\nWidth : 854 pixels\nHeight : 480 pixels\nDisplay aspect ratio : 16:9\nFrame rate : 25.000 fps\nColor space : YUV\nChroma subsampling : 4:2:0\nBit depth : 8 bits\nScan type : Progressive\nCompression mode : Lossy\nBits/(Pixel*Frame) : 0.146\nStream size : 840 MiB (92%)\nWriting library : XviD 65\n\n\nAudio\n-------------\nFormat : AC-3\nFormat/Info : Audio Coding 3\nMode extension : CM (complete main)\nFormat settings, Endianness : Big\nCodec ID : 2000\nDuration : 1h 18mn\nBit rate mode : Constant\nBit rate : 128 Kbps\nChannel(s) : 2 channels\nChannel positions : Front: L R\nSampling rate : 48.0 KHz\nBit depth : 16 bits\nCompression mode : Lossy\nStream size : 71.8 MiB (8%)\nAlignment : Aligned on interleaves\nInterleave, duration : 40 ms (1.00 video frame)\nInterleave, preload duration : 512 ms","torrent":{"xt":"urn:btih:e1a99db14924ca697ba3fcd7c8f7dad6a8d94cf0","amp;dn":"Sting+-+When+the+Last+Ship+Sails+2013+480p+HDRip+XviD+titler","amp;tr":["udp%3A%2F%2Ftracker.openbittorrent.com%3A80","udp%3A%2F%2Fopen.demonii.com%3A1337","udp%3A%2F%2Ftracker.coppersurfer.tk%3A6969","udp%3A%2F%2Fexodus.desync.com%3A6969"],"infoHash":"e1a99db14924ca697ba3fcd7c8f7dad6a8d94cf0","infoHashBuffer":{"type":"Buffer","data":[225,169,157,177,73,36,202,105,123,163,252,215,200,247,218,214,168,217,76,240]},"announce":[],"urlList":[]}}